<?xml version="1.0" encoding="UTF-8" standalone="no"?><!DOCTYPE svg PUBLIC "-//W3C//DTD SVG 1.1//EN" "http://www.w3.org/Graphics/SVG/1.1/DTD/svg11.dtd"><svg width="100%" height="100%" viewBox="0 0 100 100" version="1.1" xmlns="http://www.w3.org/2000/svg" xmlns:xlink="http://www.w3.org/1999/xlink" xml:space="preserve" xmlns:serif="http://www.serif.com/" style="fill-rule:evenodd;clip-rule:evenodd;stroke-linejoin:round;stroke-miterlimit:1.41421;"><rect x="0" y="0" width="100" height="100" style="fill:none;"/><path d="M95.833,50l-10.166,-11.583l1.416,-15.334l-15.041,-3.416l-7.875,-13.25l-14.167,6.083l-14.167,-6.083l-7.875,13.25l-15.041,3.375l1.416,15.333l-10.166,11.625l10.166,11.583l-1.416,15.375l15.041,3.417l7.875,13.25l14.167,-6.125l14.167,6.083l7.875,-13.25l15.041,-3.416l-1.416,-15.334l10.166,-11.583Zm-41.666,20.833l-8.334,0l0,-8.333l8.334,0l0,8.333Zm0,-16.666l-8.334,0l0,-25l8.334,0l0,25Z" style="fill:#e2e2e2;fill-rule:nonzero;"/></svg>