<?xml version="1.0" encoding="UTF-8" standalone="no"?><!DOCTYPE svg PUBLIC "-//W3C//DTD SVG 1.1//EN" "http://www.w3.org/Graphics/SVG/1.1/DTD/svg11.dtd"><svg width="100%" height="100%" viewBox="0 0 100 100" version="1.1" xmlns="http://www.w3.org/2000/svg" xmlns:xlink="http://www.w3.org/1999/xlink" xml:space="preserve" xmlns:serif="http://www.serif.com/" style="fill-rule:evenodd;clip-rule:evenodd;stroke-linejoin:round;stroke-miterlimit:1.41421;"><rect x="0" y="0" width="100" height="100" style="fill:none;"/><path d="M16.667,25l-8.334,0l0,58.333c0,4.584 3.75,8.334 8.334,8.334l58.333,0l0,-8.334l-58.333,0l0,-58.333Zm66.666,-16.667l-50,0c-4.583,0 -8.333,3.75 -8.333,8.334l0,50c0,4.583 3.75,8.333 8.333,8.333l50,0c4.584,0 8.334,-3.75 8.334,-8.333l0,-50c0,-4.584 -3.75,-8.334 -8.334,-8.334Zm-4.166,37.5l-41.667,0l0,-8.333l41.667,0l0,8.333Zm-16.667,16.667l-25,0l0,-8.333l25,0l0,8.333Zm16.667,-33.333l-41.667,0l0,-8.334l41.667,0l0,8.334Z" style="fill:#e0e0e0;fill-rule:nonzero;"/></svg>