<?xml version="1.0" encoding="UTF-8" standalone="no"?><!DOCTYPE svg PUBLIC "-//W3C//DTD SVG 1.1//EN" "http://www.w3.org/Graphics/SVG/1.1/DTD/svg11.dtd"><svg width="100%" height="100%" viewBox="0 0 100 100" version="1.1" xmlns="http://www.w3.org/2000/svg" xmlns:xlink="http://www.w3.org/1999/xlink" xml:space="preserve" xmlns:serif="http://www.serif.com/" style="fill-rule:evenodd;clip-rule:evenodd;stroke-linejoin:round;stroke-miterlimit:1.41421;"><rect x="0" y="0" width="100" height="100" style="fill:none;"/><path d="M50,8.333c-23,0 -41.667,18.667 -41.667,41.667c0,23 18.667,41.667 41.667,41.667c23,0 41.667,-18.667 41.667,-41.667c0,-23 -18.667,-41.667 -41.667,-41.667Zm4.167,70.834l-8.334,0l0,-8.334l8.334,0l0,8.334Zm8.625,-32.292l-3.75,3.833c-3,3.042 -4.875,5.542 -4.875,11.792l-8.334,0l0,-2.083c0,-4.584 1.875,-8.75 4.875,-11.792l5.167,-5.25c1.542,-1.5 2.458,-3.583 2.458,-5.875c0,-4.583 -3.75,-8.333 -8.333,-8.333c-4.583,0 -8.333,3.75 -8.333,8.333l-8.334,0c0,-9.208 7.459,-16.667 16.667,-16.667c9.208,0 16.667,7.459 16.667,16.667c0,3.667 -1.5,7 -3.875,9.375Z" style="fill:#e0e0e0;fill-rule:nonzero;"/></svg>