<?xml version="1.0" encoding="UTF-8" standalone="no"?><!DOCTYPE svg PUBLIC "-//W3C//DTD SVG 1.1//EN" "http://www.w3.org/Graphics/SVG/1.1/DTD/svg11.dtd"><svg width="100%" height="100%" viewBox="0 0 100 100" version="1.1" xmlns="http://www.w3.org/2000/svg" xmlns:xlink="http://www.w3.org/1999/xlink" xml:space="preserve" xmlns:serif="http://www.serif.com/" style="fill-rule:evenodd;clip-rule:evenodd;stroke-linejoin:round;stroke-miterlimit:1.41421;"><path d="M50,91.667c4.583,0 8.333,-3.75 8.333,-8.334l-16.666,0c0,4.584 3.708,8.334 8.333,8.334Zm25,-25l0,-20.834c0,-12.791 -6.833,-23.5 -18.75,-26.333l0,-2.833c0,-3.459 -2.792,-6.25 -6.25,-6.25c-3.458,0 -6.25,2.791 -6.25,6.25l0,2.833c-11.958,2.833 -18.75,13.5 -18.75,26.333l0,20.834l-8.333,8.333l0,4.167l66.666,0l0,-4.167l-8.333,-8.333Z" style="fill:#e1e1e1;fill-rule:nonzero;"/></svg>