<?xml version="1.0" encoding="UTF-8" standalone="no"?><!DOCTYPE svg PUBLIC "-//W3C//DTD SVG 1.1//EN" "http://www.w3.org/Graphics/SVG/1.1/DTD/svg11.dtd"><svg width="100%" height="100%" viewBox="0 0 100 100" version="1.1" xmlns="http://www.w3.org/2000/svg" xmlns:xlink="http://www.w3.org/1999/xlink" xml:space="preserve" xmlns:serif="http://www.serif.com/" style="fill-rule:evenodd;clip-rule:evenodd;stroke-linejoin:round;stroke-miterlimit:1.41421;"><rect x="0" y="0" width="100" height="100" style="fill:none;"/><path d="M41.667,41.75l20.833,0l0,45.75l-20.833,0l0,-45.75Zm29.166,45.75l12.5,0c4.584,0 8.334,-3.75 8.334,-8.333l0,-37.5l-20.834,0l0,45.833Zm12.5,-75l-62.5,0c-4.583,0 -8.333,3.75 -8.333,8.333l0,12.5l79.167,0l0,-12.5c0,-4.583 -3.75,-8.333 -8.334,-8.333Zm-70.833,66.667c0,4.583 3.75,8.333 8.333,8.333l12.5,0l0,-45.833l-20.833,0l0,37.5Z" style="fill:#419dca;fill-rule:nonzero;"/></svg>