<?xml version="1.0" encoding="UTF-8" standalone="no"?><!DOCTYPE svg PUBLIC "-//W3C//DTD SVG 1.1//EN" "http://www.w3.org/Graphics/SVG/1.1/DTD/svg11.dtd"><svg width="100%" height="100%" viewBox="0 0 100 100" version="1.1" xmlns="http://www.w3.org/2000/svg" xmlns:xlink="http://www.w3.org/1999/xlink" xml:space="preserve" xmlns:serif="http://www.serif.com/" style="fill-rule:evenodd;clip-rule:evenodd;stroke-linejoin:round;stroke-miterlimit:1.41421;"><rect x="0" y="0" width="100" height="100" style="fill:none;"/><path d="M16.25,50c0,-7.125 5.792,-12.917 12.917,-12.917l16.666,0l0,-7.916l-16.666,0c-11.5,0 -20.834,9.333 -20.834,20.833c0,11.5 9.334,20.833 20.834,20.833l16.666,0l0,-7.916l-16.666,0c-7.125,0 -12.917,-5.792 -12.917,-12.917Zm17.083,4.167l33.334,0l0,-8.334l-33.334,0l0,8.334Zm37.5,-25l-16.666,0l0,7.916l16.666,0c7.125,0 12.917,5.792 12.917,12.917c0,7.125 -5.792,12.917 -12.917,12.917l-16.666,0l0,7.916l16.666,0c11.5,0 20.834,-9.333 20.834,-20.833c0,-11.5 -9.334,-20.833 -20.834,-20.833Z" style="fill:#419dca;fill-rule:nonzero;"/></svg>