<?xml version="1.0" encoding="UTF-8" standalone="no"?><!DOCTYPE svg PUBLIC "-//W3C//DTD SVG 1.1//EN" "http://www.w3.org/Graphics/SVG/1.1/DTD/svg11.dtd"><svg width="100%" height="100%" viewBox="0 0 100 100" version="1.1" xmlns="http://www.w3.org/2000/svg" xmlns:xlink="http://www.w3.org/1999/xlink" xml:space="preserve" xmlns:serif="http://www.serif.com/" style="fill-rule:evenodd;clip-rule:evenodd;stroke-linejoin:round;stroke-miterlimit:1.41421;"><path d="M12.5,20.833l0,58.334c0,4.583 3.708,8.333 8.333,8.333l58.334,0c4.583,0 8.333,-3.75 8.333,-8.333l0,-58.334c0,-4.583 -3.75,-8.333 -8.333,-8.333l-58.334,0c-4.625,0 -8.333,3.75 -8.333,8.333Zm50,16.667c0,6.917 -5.583,12.5 -12.5,12.5c-6.917,0 -12.5,-5.583 -12.5,-12.5c0,-6.917 5.583,-12.5 12.5,-12.5c6.917,0 12.5,5.583 12.5,12.5Zm-37.5,33.333c0,-8.333 16.667,-12.916 25,-12.916c8.333,0 25,4.583 25,12.916l0,4.167l-50,0l0,-4.167Z" style="fill:#e1e1e1;fill-rule:nonzero;"/><rect x="0" y="0" width="100" height="100" style="fill:none;"/></svg>