<?xml version="1.0" encoding="UTF-8" standalone="no"?><!DOCTYPE svg PUBLIC "-//W3C//DTD SVG 1.1//EN" "http://www.w3.org/Graphics/SVG/1.1/DTD/svg11.dtd"><svg width="100%" height="100%" viewBox="0 0 84 84" version="1.1" xmlns="http://www.w3.org/2000/svg" xmlns:xlink="http://www.w3.org/1999/xlink" xml:space="preserve" xmlns:serif="http://www.serif.com/" style="fill-rule:evenodd;clip-rule:evenodd;stroke-linejoin:round;stroke-miterlimit:1.41421;"><rect x="0" y="0" width="83.333" height="83.333" style="fill:none;"/><path d="M66.458,44.917c0.125,-1.042 0.209,-2.125 0.209,-3.25c0,-1.125 -0.084,-2.209 -0.25,-3.25l7.041,-5.5c0.625,-0.5 0.792,-1.417 0.417,-2.125l-6.667,-11.542c-0.416,-0.75 -1.291,-1 -2.041,-0.75l-8.292,3.333c-1.75,-1.333 -3.583,-2.416 -5.625,-3.25l-1.25,-8.833c-0.125,-0.833 -0.833,-1.417 -1.667,-1.417l-13.333,0c-0.833,0 -1.5,0.584 -1.625,1.417l-1.25,8.833c-2.042,0.834 -3.917,1.959 -5.625,3.25l-8.292,-3.333c-0.75,-0.292 -1.625,0 -2.041,0.75l-6.667,11.542c-0.417,0.75 -0.25,1.625 0.417,2.125l7.041,5.5c-0.166,1.041 -0.291,2.166 -0.291,3.25c0,1.083 0.083,2.208 0.25,3.25l-7.042,5.5c-0.625,0.5 -0.792,1.416 -0.417,2.125l6.667,11.541c0.417,0.75 1.292,1 2.042,0.75l8.291,-3.333c1.75,1.333 3.584,2.417 5.625,3.25l1.25,8.833c0.167,0.834 0.834,1.417 1.667,1.417l13.333,0c0.834,0 1.542,-0.583 1.625,-1.417l1.25,-8.833c2.042,-0.833 3.917,-1.958 5.625,-3.25l8.292,3.333c0.75,0.292 1.625,0 2.042,-0.75l6.666,-11.541c0.417,-0.75 0.25,-1.625 -0.416,-2.125l-6.959,-5.5Zm-24.791,9.25c-6.875,0 -12.5,-5.625 -12.5,-12.5c0,-6.875 5.625,-12.5 12.5,-12.5c6.875,0 12.5,5.625 12.5,12.5c0,6.875 -5.625,12.5 -12.5,12.5Z" style="fill:#e1e1e1;fill-rule:nonzero;"/></svg>